<?xml version="1.0" encoding="UTF-8"?>
<!DOCTYPE svg PUBLIC "-//W3C//DTD SVG 1.1//EN" "http://www.w3.org/Graphics/SVG/1.1/DTD/svg11.dtd">
<!-- Creator: CorelDRAW X7 -->
<svg xmlns="http://www.w3.org/2000/svg" xml:space="preserve" width="5.3606mm" height="5.3606mm" version="1.1" style="shape-rendering:geometricPrecision; text-rendering:geometricPrecision; image-rendering:optimizeQuality; fill-rule:evenodd; clip-rule:evenodd"
viewBox="0 0 24798 24798"
 xmlns:xlink="http://www.w3.org/1999/xlink">
 <defs>
  <style type="text/css">
   <![CDATA[
    .str0 {stroke:white;stroke-width:925.181}
    .fil0 {fill:#F4E842}
    .fil1 {fill:white}
   ]]>
  </style>
 </defs>
 <g id="Camada_x0020_1">
  <metadata id="CorelCorpID_0Corel-Layer"/>
  <circle class="fil0" cx="12399" cy="12399" r="12399"/>
  <path class="fil1 str0" d="M19774 7451l-2330 -2330c-318,-317 -665,-469 -1074,-469 -348,0 -663,139 -938,409l-1861 1831 -7428 7428c-137,166 -206,304 -227,378l-1241 4403c-26,92 -45,181 -45,272 0,379 363,772 832,772 106,0 182,-13 242,-30l4373 -1271c148,-43 272,-92 363,-182l7473 -7459 1831 -1830c242,-242 378,-545 424,-908 0,-409 -136,-756 -394,-1014zm-10348 9880l-2754 772 802 -2754 6687 -6687 1982 1952 -6717 6717zm7897 -7898l-1982 -1952 1059 -1058 1952 1951 -1029 1059z"/>
 </g>
</svg>
