<?xml version="1.0" encoding="UTF-8"?>
<!DOCTYPE svg PUBLIC "-//W3C//DTD SVG 1.1//EN" "http://www.w3.org/Graphics/SVG/1.1/DTD/svg11.dtd">
<!-- Creator: CorelDRAW X8 -->
<svg xmlns="http://www.w3.org/2000/svg" xml:space="preserve" width="46px" height="46px" version="1.1" style="shape-rendering:geometricPrecision; text-rendering:geometricPrecision; image-rendering:optimizeQuality; fill-rule:evenodd; clip-rule:evenodd"
viewBox="0 0 1561 1561"
 xmlns:xlink="http://www.w3.org/1999/xlink">
 <defs>
  <style type="text/css">
   <![CDATA[
    .fil0 {fill:none}
    .fil1 {fill:#FEFEFE}
   ]]>
  </style>
 </defs>
 <g id="Camada_x0020_1">
  <metadata id="CorelCorpID_0Corel-Layer"/>
  <path class="fil0" d="M781 0c214,0 409,88 551,229 141,142 229,337 229,552 0,214 -88,409 -229,551 -142,141 -337,229 -551,229 -215,0 -410,-88 -552,-229 -141,-142 -229,-337 -229,-551 0,-215 88,-410 229,-552 142,-141 337,-229 552,-229z"/>
  <path class="fil1" d="M781 331c248,0 449,202 449,450 0,248 -201,449 -449,449 -248,0 -450,-201 -450,-449 0,-248 202,-450 450,-450zm0 27c233,0 422,189 422,423 0,233 -189,422 -422,422 -234,0 -423,-189 -423,-422 0,-234 189,-423 423,-423z"/>
  <g id="_1525610767296">
   <g>
    <path class="fil1" d="M990 761l-201 -180c0,0 0,-1 -1,-1 -4,-4 -11,-4 -16,0l-201 180c-5,4 -5,11 -1,16 2,3 6,4 9,4 3,0 6,-1 8,-3l36 -32 0 6 0 94 0 109c0,17 13,30 30,30 0,0 0,0 1,0 0,0 0,0 0,0l62 0c16,0 28,-12 28,-28l0 -106c0,-3 2,-5 5,-5l64 0c2,0 4,2 4,5l0 106c0,16 13,28 28,28l63 0c17,0 30,-16 30,-37l0 -98 0 -30 0 -73 36 32c3,2 6,3 8,3 4,0 7,-1 9,-4 4,-4 4,-12 -1,-16zm-76 58l0 30 0 98c0,8 -4,13 -6,13l-63 0c-2,0 -4,-2 -4,-4l0 -106c0,-16 -13,-28 -28,-28l-64 0c-16,0 -28,12 -28,28l0 106c0,3 -2,5 -5,5l-62 0c0,0 0,0 0,0 -1,0 -1,0 -1,0 -4,0 -6,-3 -6,-7l0 -109 0 -94 0 -27 133 -119 134 120 0 94 0 0z"/>
   </g>
   <g>
   </g>
   <g>
   </g>
   <g>
   </g>
   <g>
   </g>
   <g>
   </g>
   <g>
   </g>
   <g>
   </g>
   <g>
   </g>
   <g>
   </g>
   <g>
   </g>
   <g>
   </g>
   <g>
   </g>
   <g>
   </g>
   <g>
   </g>
   <g>
   </g>
  </g>
 </g>
</svg>
