<?xml version="1.0" encoding="UTF-8"?>
<!DOCTYPE svg PUBLIC "-//W3C//DTD SVG 1.1//EN" "http://www.w3.org/Graphics/SVG/1.1/DTD/svg11.dtd">
<!-- Creator: CorelDRAW 2017 -->
<svg xmlns="http://www.w3.org/2000/svg" xml:space="preserve" width="28.6461mm" height="8.8076mm" version="1.1" style="shape-rendering:geometricPrecision; text-rendering:geometricPrecision; image-rendering:optimizeQuality; fill-rule:evenodd; clip-rule:evenodd"
viewBox="0 0 681631 209576"
 xmlns:xlink="http://www.w3.org/1999/xlink">
 <defs>
  <style type="text/css">
   <![CDATA[
    .fil0 {fill:#F58634}
    .fil1 {fill:white;fill-rule:nonzero}
   ]]>
  </style>
 </defs>
 <g id="Camada_x0020_1">
  <metadata id="CorelCorpID_0Corel-Layer"/>
  <path class="fil0" d="M513665 -2c79382,0 143735,46916 143735,104790 0,24797 -11824,47578 -31573,65524 11590,11976 29182,22065 55804,29318 -35333,5149 -63068,1325 -85133,-9199 -23412,12057 -51987,19145 -82832,19145 -79382,0 -143735,-46916 -143735,-104788 0,-57874 64353,-104790 143735,-104790z"/>
  <path class="fil1" d="M33513 65710c-2458,355 -6667,1290 -12602,2839 -7315,1930 -12081,2893 -14303,2893 -1785,0 -3334,-876 -4650,-2660 -1316,-1782 -1958,-3507 -1958,-5235 0,-1785 585,-3507 1725,-5175 1140,-1694 2546,-2544 4183,-2544 2456,0 10408,-1375 23833,-4093 6491,-1375 10322,-2134 11462,-2225 1083,-117 5030,-935 11843,-2396 15529,-3305 24799,-4973 27840,-4973 1756,0 3334,819 4738,2456 1404,1609 2103,3367 2103,5266 0,1927 -845,3712 -2513,5323 -1697,1609 -3655,2396 -5939,2396 -2689,0 -7191,440 -13508,1290 -6346,845 -11229,1694 -14710,2572 0,378 0,819 0,1285 0,3921 383,10589 1111,19945 440,5206 702,8654 761,10351 174,4357 557,11084 1140,20178 616,9123 1054,14622 1375,16580 321,1930 995,4911 2077,8890 1313,4650 1958,7721 1958,9270 0,2046 -995,3714 -2955,4973 -1987,1256 -4473,1870 -7426,1870 -2924,0 -5380,-1228 -7369,-3714 -1961,-2487 -3334,-6755 -4064,-12809 -1404,-10965 -2106,-20587 -2106,-28861 0,-5263 -324,-12809 -935,-22636 -585,-8714 -935,-15733 -1111,-21056zm115479 54569c0,3745 -6141,10296 -18422,19593 -381,293 -1259,938 -2575,1961 -10441,8390 -16875,12604 -19331,12604 -4971,0 -9123,-2986 -12426,-8921 -3305,-5934 -4973,-12545 -4973,-19854l0 -3012c-849,350 -2018,526 -3507,526 -733,0 -1492,-557 -2225,-1668 -731,-1111 -1111,-2194 -1111,-3215 0,-2284 381,-3948 1142,-5004 788,-1080 2572,-2192 5351,-3391 0,-6227 700,-12076 2103,-17544 1406,-5440 3336,-10030 5792,-13744 2458,-3714 4621,-5585 6491,-5585 5263,0 10322,935 15179,2834 4823,1873 8947,4419 12283,7633 3331,3189 4999,6082 4999,8654 0,3012 -293,5235 -907,6670 -585,1432 -1580,2777 -2982,4005 -1406,1228 -5763,3831 -13075,7838 -7193,4005 -11317,6432 -12338,7281l0 4209c0,4007 612,7486 1813,10472 1197,2953 2513,4443 3917,4443 2458,0 6960,-3391 13451,-10203 5266,-5411 8745,-8776 10470,-10034 1697,-1254 3274,-1870 4709,-1870 4124,0 6170,1785 6170,5323zm-36144 -32166c-1026,0 -2077,1930 -3189,5789 -1080,3860 -1637,7134 -1637,9827 878,-469 2689,-1318 5440,-2577 4650,-2103 7486,-3538 8509,-4297 0,-1930 -907,-3890 -2748,-5818 -1842,-1961 -3948,-2924 -6375,-2924zm40558 56115c0,-9999 6230,-19971 18658,-29884 1551,-1259 3714,-3012 6551,-5237 2805,-2222 5616,-4416 8421,-6548 2808,-2165 4914,-3334 6346,-3569 -585,-3595 -1637,-6460 -3189,-8569 -1520,-2132 -3450,-3189 -5730,-3189 -2225,0 -4828,702 -7809,2108 -3012,1404 -5292,2924 -6901,4533 -2222,2251 -3771,3362 -4621,3362 -1754,0 -3507,-733 -5266,-2225 -1723,-1490 -2598,-3215 -2598,-5144 0,-2691 1901,-5087 5727,-7224 3831,-2103 8395,-4093 13718,-5965 5292,-1842 9182,-2777 11636,-2777 5530,0 10120,2192 13749,6548 3624,4388 6577,10969 8859,19740 2220,7136 3334,17020 3334,29653 0,5585 -583,11053 -1725,16347 -673,3274 -1404,5204 -2163,5792 -790,612 -1901,1109 -3365,1518 -1463,381 -2720,585 -3802,585 -2629,0 -4766,-585 -6403,-1754 -1639,-1171 -2427,-2808 -2427,-4885l585 -5468c-3189,3686 -7429,6667 -12661,8921 -5237,2251 -10325,3362 -15238,3362 -9123,0 -13684,-3336 -13684,-10032zm41584 -33132c-15324,9825 -22986,18539 -22986,26146 0,2689 1463,4033 4357,4033 4093,0 8364,-2163 12809,-6460 964,-880 2222,-1758 3774,-2603 1547,-849 2396,-1287 2572,-1287 0,0 0,0 0,0 0,59 0,86 0,86 0,-8802 -176,-15438 -526,-19914zm71673 -18305c-5963,1140 -10962,5440 -15031,12866 -4064,7429 -6080,15148 -6080,23133 0,3831 585,6551 1723,8157 1142,1609 3012,2399 5647,2399 3422,0 7748,-1578 13011,-4707 792,-471 1375,-764 1697,-935 642,-355 1785,-1347 3422,-3012 3831,-3831 6843,-5732 9006,-5732 2282,0 4212,585 5763,1723 1578,1142 2365,2487 2365,4038 0,4738 -4707,9504 -14122,14270 -9416,4766 -17868,7162 -25353,7162 -7193,0 -12692,-1782 -16464,-5349 -3774,-3567 -5644,-8626 -5644,-15148 0,-13949 4738,-26672 14239,-38162 3952,-4795 8309,-8890 13075,-12254 4766,-3362 8304,-5056 10584,-5056 5380,0 8071,2368 8071,7103 0,5616 -1958,8776 -5908,9506zm74540 52463c0,-1725 238,-5121 702,-10206 821,-9009 1230,-16202 1230,-21582 0,-7310 -673,-13335 -2018,-18072 -1344,-4740 -3043,-7105 -5116,-7105 -3686,0 -7779,3039 -12342,9123 -4564,6082 -6843,11667 -6843,16816 0,9532 642,17484 1901,23888 1197,6318 1782,9972 1782,10939 0,4300 -2425,6434 -7253,6434 -2689,0 -4650,-207 -5904,-642 -1259,-440 -2310,-1463 -3160,-3129 -1668,-4768 -3800,-18834 -6463,-42169 -264,-4209 -1285,-12400 -3012,-24535 -2572,-18363 -3860,-30560 -3860,-36613 0,-5585 1023,-9589 3100,-12047 2046,-2456 5499,-3683 10351,-3683 2634,0 4797,702 6491,2103 1668,1375 2517,3129 2517,5235 0,966 -88,2751 -264,5294 -378,6111 -585,11812 -585,17109 0,3012 378,8421 1197,16228 673,7134 1083,12309 1202,15555 1140,-4502 4647,-8799 10498,-12894 5849,-4124 12138,-6170 18831,-6170 5877,0 10410,3365 13627,10060 3189,6694 4795,16404 4795,29065 0,1668 -293,5994 -845,13016 -645,8040 -938,13363 -938,15907 -57,3158 -1054,5616 -2924,7369 -1870,1785 -4561,2663 -8040,2663 -2634,-236 -4738,-1056 -6289,-2487 -1578,-1435 -2370,-3246 -2370,-5468z"/>
  <path class="fil1" d="M405570 68291c0,-171 -340,-426 -997,-826 -2080,-1283 -3105,-2679 -3105,-4162 0,-1965 854,-3731 2594,-5387 1708,-1623 8005,-4074 18865,-7296 14305,-4274 26646,-6410 37018,-6410 14248,0 21373,3362 21373,10087 0,4390 -2537,9378 -7638,14991 -5102,5613 -11141,10175 -18151,13651 7438,-1994 15588,-2993 24364,-2993 8124,0 14394,1366 18779,4105 4390,2708 6584,6527 6584,11426 0,9035 -6039,18182 -18151,27500 -12085,9292 -29099,18067 -51011,26331 -1654,600 -2936,1368 -3848,2337 -1225,1342 -2594,1996 -4076,1996 -2734,0 -5185,-628 -7381,-1911 -2163,-1280 -3248,-2991 -3248,-5099 0,-2908 -1052,-11455 -3134,-25649 -1083,-7638 -1794,-12852 -2137,-15702 -1371,0 -2765,-543 -4133,-1623 -1366,-1085 -2051,-2282 -2051,-3562 0,-2053 1311,-4390 3933,-7012 0,-2023 -771,-6582 -2251,-13706 -1197,-5442 -1908,-9149 -2196,-11086zm18125 -4616c171,7407 999,15445 2508,24138 3793,-1456 8776,-4133 14905,-8009 6127,-3902 10858,-7579 14194,-11084 3331,-3479 4983,-6527 4983,-9121 0,-2734 -3105,-4102 -9318,-4102 -2791,0 -7464,968 -14049,2934 -6582,1939 -10972,3676 -13223,5244zm5273 36961c600,3619 1651,10572 3165,20859 1168,7838 1823,12169 1992,12997 2567,-2111 7212,-4045 13908,-5758 9061,-2394 17553,-6724 25477,-12937 7952,-6239 11912,-11598 11912,-16045 0,-2903 -826,-5014 -2508,-6353 -1682,-1337 -5159,-1996 -10403,-1996 -11541,0 -26072,3079 -43542,9235zm84667 21030c0,-7693 1880,-15645 5642,-23852 3760,-8207 8376,-14448 13820,-18750 512,-314 1026,-942 1597,-1823 1052,-1739 2534,-2596 4416,-2596 1454,0 3079,286 4845,885 1739,543 3248,826 4531,826 4045,0 8407,1651 13054,4956 4671,3336 8233,7638 10743,12968 2506,5302 3760,11314 3760,18010 0,7296 -1654,14022 -4928,20204 -3279,6184 -7809,11229 -13565,15134 -5785,3902 -11429,5842 -16930,5842 -8404,0 -15017,-2763 -19802,-8321 -4788,-5530 -7181,-13366 -7181,-23483zm29265 18979c3448,0 6727,-2534 9832,-7579 3103,-5073 4673,-10801 4673,-17213 0,-6610 -1168,-12797 -3505,-18553 -2339,-5754 -4761,-8633 -7269,-8633 -2820,0 -5785,3448 -8859,10317 -3110,6867 -4647,14077 -4647,21630 0,6296 883,11198 2620,14731 1770,3534 4133,5299 7155,5299zm53403 -46762c-569,57 -1454,143 -2679,257 -2222,226 -3902,340 -5014,340 -1399,0 -2651,-540 -3736,-1623 -1083,-1085 -1623,-2196 -1623,-3365 0,-2023 514,-3645 1509,-4928 999,-1285 2337,-1911 4019,-1911 769,0 1911,-143 3419,-426 1340,-288 2337,-402 2934,-402 0,-3474 -452,-8147 -1394,-14020 -711,-4531 -1083,-7807 -1083,-9858 0,-2394 800,-4331 2422,-5844 1594,-1509 3679,-2249 6213,-2249 2794,0 5045,683 6839,2080 1768,1394 2651,3048 2651,4930 0,826 171,3217 485,7181 628,7350 940,12509 940,15531 600,-114 1366,-345 2334,-685 1425,-540 2682,-828 3736,-828 1854,0 3388,685 4645,2053 1254,1368 1880,3022 1880,4959 0,940 -197,1825 -597,2622 -371,826 -911,1480 -1568,2051 -683,571 -3648,1337 -8949,2337 0,1854 174,6213 488,13111 340,6893 623,11510 854,13846 255,2565 597,7610 995,15105 371,7524 571,12197 571,14020 0,1739 -797,3393 -2420,4987 -1599,1568 -3393,2365 -5390,2365 -2962,0 -5413,-628 -7407,-1823 -942,-628 -1682,-1340 -2222,-2194 -514,-828 -911,-3933 -1197,-9349 -431,-8833 -657,-15700 -657,-20547 0,-2565 -200,-8433 -597,-17611 -257,-5730 -400,-9092 -400,-10115z"/>
 </g>
</svg>
