<?xml version="1.0" encoding="UTF-8"?>
<!DOCTYPE svg PUBLIC "-//W3C//DTD SVG 1.1//EN" "http://www.w3.org/Graphics/SVG/1.1/DTD/svg11.dtd">
<!-- Creator: CorelDRAW 2017 -->
<svg xmlns="http://www.w3.org/2000/svg" xml:space="preserve" width="40.0527mm" height="12.3147mm" version="1.1" style="shape-rendering:geometricPrecision; text-rendering:geometricPrecision; image-rendering:optimizeQuality; fill-rule:evenodd; clip-rule:evenodd"
viewBox="0 0 1598461 491467"
 xmlns:xlink="http://www.w3.org/1999/xlink">
 <defs>
  <style type="text/css">
   <![CDATA[
    .fil0 {fill:#F58634}
    .fil1 {fill:white;fill-rule:nonzero}
   ]]>
  </style>
 </defs>
 <g id="Camada_x0020_1">
  <metadata id="CorelCorpID_0Corel-Layer"/>
  <g id="_1713497932496">
   <path class="fil0" d="M1204572 -4c186159,0 337067,110021 337067,245735 0,58151 -27721,111577 -74039,153657 27182,28084 68432,51746 130861,68755 -82855,12072 -147899,3109 -199637,-21575 -54907,28275 -121914,44898 -194253,44898 -186155,0 -337067,-110021 -337067,-245735 0,-135714 150912,-245735 337067,-245735z"/>
   <path class="fil1" d="M78589 154096c-5759,826 -15636,3017 -29553,6657 -17149,4518 -28327,6781 -33539,6781 -4182,0 -7814,-2051 -10903,-6234 -3085,-4186 -4594,-8229 -4594,-12280 0,-4182 1377,-8225 4047,-12136 2674,-3975 5970,-5966 9810,-5966 5759,0 24408,-3221 55888,-9598 15221,-3225 24205,-5005 26883,-5216 2538,-271 11793,-2191 27773,-5619 36413,-7750 58151,-11661 65287,-11661 4111,0 7814,1920 11107,5759 3292,3771 4933,7894 4933,12352 0,4518 -1983,8700 -5895,12480 -3979,3771 -8568,5619 -13924,5619 -6306,0 -16866,1030 -31684,3021 -14878,1983 -26328,3975 -34493,6034 0,890 0,1920 0,3013 0,9195 898,24827 2610,46769 1030,12208 1644,20298 1784,24277 407,10217 1305,25993 2670,47320 1445,21395 2474,34290 3225,38879 758,4526 2335,11522 4873,20848 3081,10903 4598,18107 4598,21738 0,4801 -2335,8712 -6932,11661 -4661,2949 -10492,4386 -17416,4386 -6860,0 -12619,-2881 -17281,-8712 -4598,-5831 -7822,-15836 -9530,-30035 -3292,-25709 -4941,-48278 -4941,-67682 0,-12340 -758,-30035 -2195,-53079 -1373,-20433 -2191,-36896 -2606,-49375zm270810 127964c0,8780 -14403,24141 -43205,45943 -890,686 -2949,2199 -6034,4598 -24484,19679 -39574,29561 -45333,29561 -11657,0 -21395,-7004 -29142,-20920 -7750,-13916 -11661,-29421 -11661,-46562l0 -7064c-1987,822 -4729,1233 -8225,1233 -1720,0 -3500,-1301 -5216,-3911 -1716,-2606 -2606,-5140 -2606,-7539 0,-5356 890,-9259 2678,-11729 1848,-2538 6034,-5144 12551,-7958 0,-14603 1640,-28315 4933,-41142 3292,-12755 7822,-23518 13581,-32230 5759,-8708 10835,-13098 15221,-13098 12340,0 24205,2195 35595,6653 11310,4386 20980,10356 28802,17899 7814,7475 11725,14259 11725,20294 0,7064 -690,12276 -2127,15640 -1373,3356 -3704,6513 -6992,9391 -3292,2881 -13513,8984 -30658,18382 -16870,9391 -26539,15082 -28938,17073l0 9873c0,9399 1437,17556 4254,24556 2810,6924 5895,10420 9187,10420 5763,0 16323,-7954 31544,-23933 12348,-12683 20505,-20573 24548,-23522 3979,-2945 7682,-4390 11043,-4390 9674,0 14475,4186 14475,12484zm-84763 -75436c-2403,0 -4869,4530 -7479,13581 -2534,9047 -3839,16730 -3839,23043 2059,-1101 6306,-3089 12755,-6042 10903,-4933 17556,-8297 19958,-10077 0,-4526 -2131,-9123 -6449,-13645 -4314,-4594 -9255,-6860 -14946,-6860zm95111 131596c0,-23447 14607,-46833 43752,-70080 3636,-2949 8708,-7064 15361,-12276 6581,-5216 13166,-10356 19747,-15361 6589,-5076 11522,-7814 14886,-8369 -1373,-8429 -3839,-15149 -7479,-20090 -3568,-5005 -8094,-7479 -13441,-7479 -5212,0 -11318,1648 -18310,4941 -7064,3292 -12412,6860 -16183,10632 -5212,5276 -8844,7882 -10831,7882 -4115,0 -8229,-1716 -12348,-5212 -4047,-3496 -6098,-7543 -6098,-12068 0,-6306 4458,-11929 13433,-16937 8984,-4933 19687,-9602 32167,-13988 12412,-4322 21535,-6517 27290,-6517 12962,0 23730,5144 32234,15361 8501,10289 15425,25717 20781,46286 5208,16738 7814,39917 7814,69541 0,13098 -1369,25921 -4043,38333 -1580,7682 -3296,12208 -5076,13581 -1848,1437 -4458,2602 -7890,3560 -3428,898 -6377,1373 -8916,1373 -6166,0 -11175,-1373 -15018,-4111 -3839,-2742 -5691,-6581 -5691,-11454l1377 -12823c-7479,8640 -17424,15636 -29692,20920 -12280,5276 -24213,7882 -35734,7882 -21395,0 -32091,-7822 -32091,-23526zm97518 -77695c-35938,23039 -53905,43477 -53905,61312 0,6306 3432,9458 10217,9458 9602,0 19615,-5072 30035,-15149 2263,-2059 5212,-4123 8852,-6106 3628,-1987 5619,-3017 6034,-3017 0,0 0,0 0,0 0,140 0,204 0,204 0,-20641 -415,-36205 -1233,-46701zm168077 -42926c-13988,2670 -25713,12755 -35248,30171 -9534,17420 -14263,35523 -14263,54248 0,8984 1373,15361 4043,19132 2678,3767 7064,5619 13238,5619 8026,0 18175,-3700 30514,-11039 1856,-1097 3225,-1788 3979,-2191 1509,-830 4186,-3157 8026,-7064 8984,-8987 16047,-13441 21120,-13441 5348,0 9877,1373 13513,4043 3700,2678 5551,5831 5551,9466 0,11107 -11039,22285 -33120,33464 -22082,11178 -41900,16798 -59456,16798 -16866,0 -29760,-4182 -38608,-12543 -8848,-8369 -13238,-20234 -13238,-35523 0,-32713 11111,-62545 33396,-89492 9263,-11246 19480,-20848 30658,-28738 11178,-7886 19476,-11861 24823,-11861 12615,0 18929,5551 18929,16658 0,13170 -4598,20577 -13856,22293zm174801 123027c0,-4047 551,-12005 1644,-23933 1920,-21124 2881,-37989 2881,-50613 0,-17141 -1576,-31269 -4729,-42375 -3153,-11115 -7136,-16666 -12001,-16666 -8640,0 -18238,7128 -28942,21395 -10700,14259 -16047,27358 -16047,39434 0,22353 1509,41002 4458,56020 2810,14814 4182,23387 4182,25649 0,10085 -5691,15090 -17009,15090 -6306,0 -10903,-483 -13844,-1509 -2953,-1030 -5420,-3432 -7407,-7335 -3911,-11186 -8916,-44163 -15161,-98890 -615,-9873 -3013,-29078 -7064,-57537 -6034,-43062 -9047,-71661 -9047,-85860 0,-13098 2399,-22489 7267,-28248 4801,-5763 12895,-8640 24277,-8640 6174,0 11246,1644 15221,4933 3911,3225 5903,7335 5903,12276 0,2263 -204,6449 -619,12412 -890,14331 -1373,27705 -1373,40120 0,7064 890,19751 2810,38061 1576,16726 2538,28866 2818,36477 2670,-10560 10895,-20641 24620,-30239 13713,-9674 28459,-14471 44155,-14471 13785,0 24416,7890 31955,23594 7479,15696 11250,38468 11250,68160 0,3911 -686,14056 -1983,30518 -1513,18857 -2203,31340 -2203,37303 -132,7407 -2466,13170 -6852,17281 -4386,4186 -10700,6246 -18857,6246 -6174,-555 -11111,-2474 -14746,-5831 -3700,-3364 -5555,-7611 -5555,-12823z"/>
   <path class="fil1" d="M951086 160151c0,-407 -798,-1002 -2343,-1944 -4877,-3005 -7279,-6278 -7279,-9754 0,-4609 2003,-8752 6082,-12635 4007,-3807 18773,-9554 44243,-17105 33543,-10025 62481,-15034 86806,-15034 33412,0 50122,7882 50122,23650 0,10297 -5950,21994 -17915,35152 -11961,13170 -26124,23866 -42563,32015 17440,-4673 36553,-7016 57134,-7016 19049,0 33751,3201 44040,9622 10293,6350 15437,15305 15437,26799 0,21184 -14164,42635 -42567,64485 -28339,21790 -68236,42371 -119623,61747 -3875,1409 -6884,3213 -9019,5483 -2873,3145 -6086,4681 -9558,4681 -6413,0 -12160,-1473 -17313,-4482 -5072,-3005 -7619,-7012 -7619,-11961 0,-6820 -2466,-26863 -7351,-60143 -2534,-17911 -4202,-30139 -5009,-36828 -3209,0 -6481,-1265 -9694,-3803 -3201,-2542 -4805,-5348 -4805,-8353 0,-4817 3077,-10297 9223,-16442 0,-4741 -1808,-15437 -5280,-32143 -2810,-12763 -4478,-21451 -5148,-25993zm42503 -10827c399,17372 2339,36217 5879,56603 8892,-3412 20581,-9694 34956,-18781 14367,-9155 25458,-17771 33280,-25993 7814,-8157 11689,-15305 11689,-21387 0,-6413 -7279,-9622 -21850,-9622 -6545,0 -17508,2267 -32945,6880 -15437,4550 -25733,8620 -31009,12300zm12360 86674c1409,8485 3875,24791 7423,48912 2742,18382 4274,28539 4673,30478 6022,-4949 16909,-9486 32618,-13505 21248,-5611 41162,-15768 59740,-30335 18649,-14635 27936,-27198 27936,-37626 0,-6812 -1936,-11761 -5883,-14898 -3943,-3141 -12092,-4681 -24392,-4681 -27066,0 -61144,7216 -102115,21655zm198551 49315c0,-18039 4406,-36688 13230,-55932 8816,-19252 19643,-33883 32414,-43976 1197,-734 2403,-2207 3739,-4274 2466,-4079 5942,-6082 10360,-6082 3404,0 7216,666 11358,2075 4079,1269 7619,1932 10624,1932 9490,0 19715,3875 30610,11625 10955,7822 19308,17915 25195,30411 5879,12432 8816,26531 8816,42236 0,17105 -3875,32881 -11558,47380 -7686,14499 -18310,26328 -31807,35491 -13569,9151 -26799,13697 -39701,13697 -19711,0 -35212,-6481 -46438,-19515 -11230,-12966 -16842,-31340 -16842,-55066zm68627 44506c8090,0 15776,-5942 23055,-17771 7283,-11901 10963,-25330 10963,-40368 0,-15501 -2742,-30008 -8221,-43505 -5479,-13497 -11163,-20246 -17045,-20246 -6613,0 -13565,8086 -20777,24193 -7287,16103 -10899,33013 -10899,50720 0,14766 2075,26260 6146,34549 4151,8285 9694,12428 16778,12428zm125234 -109662c-1333,136 -3408,335 -6282,603 -5212,535 -9151,798 -11757,798 -3281,0 -6218,-1265 -8760,-3803 -2538,-2546 -3807,-5152 -3807,-7890 0,-4745 1205,-8552 3540,-11558 2343,-3013 5479,-4478 9426,-4478 1800,0 4478,-335 8018,-1002 3137,-674 5479,-938 6880,-938 0,-8153 -1066,-19112 -3273,-32885 -1668,-10624 -2538,-18302 -2538,-23119 0,-5611 1872,-10153 5679,-13697 3739,-3540 8624,-5280 14567,-5280 6553,0 11829,1604 16043,4877 4143,3273 6214,7152 6214,11566 0,1932 399,7547 1137,16838 1473,17241 2207,29337 2207,36421 1401,-263 3201,-806 5472,-1604 3344,-1269 6290,-1940 8760,-1940 4346,0 7950,1604 10891,4813 2945,3209 4410,7084 4410,11625 0,2207 -463,4282 -1401,6154 -870,1936 -2139,3468 -3676,4809 -1604,1337 -8556,3137 -20988,5479 0,4346 407,14571 1141,30742 802,16167 1465,26994 2007,32478 595,6010 1401,17839 2331,35415 870,17648 1341,28607 1341,32881 0,4079 -1872,7954 -5679,11697 -3747,3672 -7954,5543 -12635,5543 -6952,0 -12695,-1473 -17372,-4274 -2207,-1473 -3943,-3141 -5212,-5144 -1205,-1940 -2139,-9223 -2806,-21922 -1006,-20713 -1540,-36820 -1540,-48186 0,-6010 -471,-19775 -1401,-41298 -603,-13433 -938,-21319 -938,-23722z"/>
  </g>
 </g>
</svg>
