<?xml version="1.0" encoding="UTF-8"?>
<!DOCTYPE svg PUBLIC "-//W3C//DTD SVG 1.1//EN" "http://www.w3.org/Graphics/SVG/1.1/DTD/svg11.dtd">
<!-- Creator: CorelDRAW X8 -->
<svg xmlns="http://www.w3.org/2000/svg" xml:space="preserve" width="209px" height="33px" version="1.1" style="shape-rendering:geometricPrecision; text-rendering:geometricPrecision; image-rendering:optimizeQuality; fill-rule:evenodd; clip-rule:evenodd"
viewBox="0 0 43987 7010"
 xmlns:xlink="http://www.w3.org/1999/xlink">
 <defs>
  <style type="text/css">
   <![CDATA[
    .fil0 {fill:#FEFEFE}
    .fil1 {fill:#FEFEFE;fill-rule:nonzero}
   ]]>
  </style>
 </defs>
 <g id="Camada_x0020_1">
  <metadata id="CorelCorpID_0Corel-Layer"/>
  <g id="_3113121092528">
   <path class="fil0" d="M14144 2440c-742,-151 -1473,72 -1998,540l0 0c-36,33 -71,67 -106,101l-2 3 -19 19 -3 3 -3 3 -2 3 -19 19 -2 3 -3 3 -3 3 -2 3 -3 3 -3 3 -5 5 0 0 0 0 0 1 -2 2 -3 3 -2 3 -3 2 -12 14 -2 3 -3 2 -2 3 0 0 -2 3 -3 3 -2 3 -2 2 -5 6 -2 2 -3 3 -2 3 -3 3 -2 3 -2 2 -3 3 -2 3 -2 3 -3 2 -2 3 -2 3 -2 3 -3 3 -2 3 -14 17 -2 2 -2 3 -3 3c-16,21 -32,42 -48,64l-1 1c-21,29 -41,58 -61,88l-5 -7c-588,841 -538,1786 -1303,2229l-2 1 -1 1 -2 1 -1 1 -1 1 -2 1 -1 1 -2 1 -1 0 -1 1 0 0 -2 1 -1 1 -1 1 -2 1 -1 1 -9 5 -1 1 -2 1 -1 0 -1 1 -2 1 0 0 -1 1 -2 1 -1 1 -1 0 -12 7 -1 1 -2 0 -1 1 -1 1 -1 1 -1 0 -1 1 -2 1 -1 0 -2 1 -1 1 -2 1 -7 4 -1 1 -2 0 -1 1 -1 1 -2 1 0 0 -1 0 -2 1 -1 1 -3 2 0 -1c-222,116 -483,159 -748,106 -610,-125 -1004,-721 -880,-1331 125,-611 721,-1005 1331,-881 106,22 205,58 297,105l0 0 22 12 0 0 2 1 17 10 2 1 4 3 2 1 3 1 2 1 8 5 2 2 2 1 3 1 1 1 1 1 2 1 2 1 2 1 2 2 2 1 6 4 2 1 2 2 2 1 0 0 2 1 17 11 2 2 2 1 0 0 2 1 2 2 2 1 12 8 1 -1c102,85 233,136 376,136 325,0 588,-263 588,-588 0,-190 -89,-359 -228,-466l-1 -1 -2 -1c-266,-201 -580,-348 -929,-419 -1248,-255 -2466,551 -2720,1798 -255,1248 550,2466 1798,2720 829,169 1644,-129 2173,-714l0 0 0 -1c52,-57 101,-117 147,-180l67 -82 0 0c588,-841 538,-1786 1303,-2230 240,-154 537,-219 838,-158 611,125 1005,721 881,1332 -125,610 -721,1004 -1331,880 -161,-33 -306,-98 -431,-188l-1 2c-102,-85 -233,-136 -376,-136 -325,0 -588,263 -588,588 0,193 92,364 236,472l0 0c265,199 578,344 924,415 1248,254 2466,-551 2720,-1798 255,-1248 -551,-2466 -1798,-2720zm4182 1136c-18,1 -35,2 -53,2 -325,0 -589,-263 -589,-588 0,-325 264,-589 589,-589l0 -1c56,-4 114,-6 171,-6 1274,0 2306,1032 2306,2305 0,1274 -1032,2306 -2306,2306 -1259,0 -2282,-1009 -2305,-2263l0 0 0 -43 0 -3321 1 0 0 -712c0,-10 0,-20 1,-30 -2,-16 -2,-32 -2,-48 0,-325 263,-588 587,-588 325,0 588,263 588,588l0 10 1 0 0 4129 1 0c15,611 514,1101 1128,1101 623,0 1129,-505 1129,-1129 0,-623 -506,-1128 -1129,-1128 -40,0 -79,2 -118,6l0 -1zm-13222 -1076c1435,-49 2170,920 2209,2306l0 823 -3 0 0 713 0 20c1,11 1,22 1,33 0,340 -275,615 -615,615 -340,0 -615,-275 -615,-615 0,-7 0,-13 0,-20 0,-11 -1,-22 -1,-33l0 -713 0 0 0 -1074 0 -17c-15,-473 -403,-849 -876,-849 -473,0 -908,389 -923,862l0 17 0 1074 -2 0 0 690c2,21 3,42 3,63 0,340 -275,615 -615,615 -305,0 -558,-222 -606,-513 -11,-50 -16,-102 -16,-155l0 -713 0 0 0 -1074 -1 -17c-14,-473 -447,-849 -920,-849 -473,0 -862,376 -876,849l-1 17 0 1074 -2 0 0 713c0,39 -3,76 -10,112 -29,312 -292,556 -612,556 -340,0 -615,-275 -615,-615l0 -9c-2,-14 -3,-29 -5,-44l0 -713 -1 0 0 -823c-58,-1474 944,-2306 2222,-2306 545,0 1045,189 1440,505 394,-316 895,-505 1440,-505z"/>
   <path class="fil1" d="M21801 6856c0,80 73,146 160,146 79,0 132,-47 165,-126l544 -1201 2740 0 544 1194c34,73 93,133 173,133 93,0 166,-73 166,-160 0,-33 -7,-66 -27,-106l-1977 -4286c-46,-99 -113,-165 -232,-165l-13 0c-120,0 -186,66 -233,165l-1983 4300c-20,39 -27,79 -27,106zm1015 -1493l1228 -2687 1221 2687 -2449 0zm4545 1440c0,93 80,172 172,172l1374 0c1459,0 2468,-1015 2468,-2322l0 -13c0,-1307 -1009,-2309 -2468,-2309l-1374 0c-92,0 -172,80 -172,173l0 4299zm345 -146l0 -4007 1201 0c1293,0 2109,902 2109,2003l0 13c0,1108 -816,1991 -2109,1991l-1201 0zm4843 179c0,93 73,166 166,166 93,0 166,-73 166,-166l0 -3895 1705 2482c40,59 86,86 146,86 59,0 106,-27 146,-86l1705 -2482 0 3888c0,93 79,173 172,173 93,0 173,-80 173,-173l0 -4345c0,-93 -80,-173 -173,-173l-33 0c-73,0 -132,40 -172,100l-1812 2667 -1811 -2667c-46,-60 -99,-100 -172,-100l-34 0c-92,0 -172,80 -172,173l0 4352zm5805 -7c0,93 80,173 173,173 93,0 172,-80 172,-173l0 -4352c0,-93 -79,-172 -172,-172 -93,0 -173,79 -173,172l0 4352zm1772 7c0,93 72,166 166,166 92,0 165,-73 165,-166l0 -4001 3191 4047c53,67 107,113 173,113l26 0c80,0 140,-66 140,-146l0 -4379c0,-92 -73,-165 -166,-165 -93,0 -166,73 -166,165l0 3915 -3131 -3974c-47,-60 -100,-100 -173,-100l-53 0c-93,0 -172,80 -172,173l0 4352z"/>
  </g>
 </g>
</svg>
