<?xml version="1.0" encoding="UTF-8"?>
<!DOCTYPE svg PUBLIC "-//W3C//DTD SVG 1.1//EN" "http://www.w3.org/Graphics/SVG/1.1/DTD/svg11.dtd">
<!-- Creator: CorelDRAW X8 -->
<svg xmlns="http://www.w3.org/2000/svg" xml:space="preserve" width="46px" height="46px" version="1.1" style="shape-rendering:geometricPrecision; text-rendering:geometricPrecision; image-rendering:optimizeQuality; fill-rule:evenodd; clip-rule:evenodd"
viewBox="0 0 1248 1248"
 xmlns:xlink="http://www.w3.org/1999/xlink">
 <defs>
  <style type="text/css">
   <![CDATA[
    .fil0 {fill:none}
    .fil1 {fill:#FEFEFE}
   ]]>
  </style>
 </defs>
 <g id="Camada_x0020_1">
  <metadata id="CorelCorpID_0Corel-Layer"/>
  <path class="fil0" d="M624 0c172,0 328,70 441,183 113,113 183,269 183,441 0,172 -70,328 -183,441 -113,113 -269,183 -441,183 -172,0 -328,-70 -441,-183 -113,-113 -183,-269 -183,-441 0,-172 70,-328 183,-441 113,-113 269,-183 441,-183z"/>
  <g id="_3078521570944">
   <g>
    <path class="fil1" d="M624 290c-184,0 -334,150 -334,334 0,184 150,334 334,334 184,0 334,-150 334,-334 0,-184 -150,-334 -334,-334zm0 646c-172,0 -312,-140 -312,-312 0,-172 140,-312 312,-312 169,0 306,134 312,301l-349 0 60 -61 -15 -15 -86 86 88 88 15 -15 -62 -62 349 1c-6,167 -143,301 -312,301z"/>
   </g>
   <g>
   </g>
   <g>
   </g>
   <g>
   </g>
   <g>
   </g>
   <g>
   </g>
   <g>
   </g>
   <g>
   </g>
   <g>
   </g>
   <g>
   </g>
   <g>
   </g>
   <g>
   </g>
   <g>
   </g>
   <g>
   </g>
   <g>
   </g>
   <g>
   </g>
  </g>
 </g>
</svg>
