<?xml version="1.0" encoding="UTF-8"?>
<!DOCTYPE svg PUBLIC "-//W3C//DTD SVG 1.1//EN" "http://www.w3.org/Graphics/SVG/1.1/DTD/svg11.dtd">
<!-- Creator: CorelDRAW X8 -->
<svg xmlns="http://www.w3.org/2000/svg" xml:space="preserve" width="46px" height="46px" version="1.1" style="shape-rendering:geometricPrecision; text-rendering:geometricPrecision; image-rendering:optimizeQuality; fill-rule:evenodd; clip-rule:evenodd"
viewBox="0 0 1344 1344"
 xmlns:xlink="http://www.w3.org/1999/xlink">
 <defs>
  <style type="text/css">
   <![CDATA[
    .fil0 {fill:none}
    .fil1 {fill:#FEFEFE}
   ]]>
  </style>
 </defs>
 <g id="Camada_x0020_1">
  <metadata id="CorelCorpID_0Corel-Layer"/>
  <path class="fil0" d="M672 0c185,0 353,76 474,197 122,122 198,290 198,475 0,185 -76,353 -198,474 -121,122 -289,198 -474,198 -185,0 -353,-76 -475,-198 -121,-121 -197,-289 -197,-474 0,-185 76,-353 197,-475 122,-121 290,-197 475,-197z"/>
  <path class="fil1" d="M416 958l9 7c1,1 1,1 2,2 7,6 14,11 21,16 2,1 4,3 7,5 7,5 15,10 22,14l6 3c8,5 17,10 26,14l2 1c29,14 61,23 93,29l2 1c10,1 21,3 31,4l4 0c10,1 20,1 31,1 10,0 21,0 31,-1l4 0c10,-1 20,-3 30,-4l3 -1c31,-5 62,-15 91,-28l3 -2c9,-4 17,-8 26,-13l6 -3c7,-5 15,-9 22,-14 2,-2 5,-4 7,-6 7,-4 13,-9 18,-14 2,-1 3,-1 4,-3l10 -7 -1 0 4 -4c80,-72 125,-175 125,-283 0,-212 -172,-384 -383,-384 -212,0 -384,172 -384,384 0,108 45,210 125,282l3 3 0 1zm13 -16c-77,-69 -121,-167 -121,-270 0,-201 163,-364 364,-364 200,0 363,163 363,364 0,104 -44,202 -122,272l-2 2 -3 -2c-4,-3 -8,-5 -12,-7l-120 -60c-12,-6 -19,-18 -19,-32l0 -43 1 -1c3,-4 6,-7 8,-11 16,-22 28,-46 37,-72l0 -1 2 -1c16,-8 27,-24 27,-43l0 -50c0,-11 -4,-22 -12,-30l-1 -1 0 -68 0 0c1,-10 0,-21 -1,-30 -4,-19 -12,-36 -24,-50 -30,-34 -79,-43 -122,-43 -44,0 -92,9 -122,43 -13,14 -20,31 -24,50 -2,9 -3,20 -2,30l0 0 0 68 -1 1c-7,8 -11,19 -11,30l0 50c0,15 6,28 17,37l1 1 1 1c7,31 23,63 43,89l0 1 0 42c0,13 -7,25 -18,31l-112 61c-3,2 -7,4 -10,7l-3 1 -2 -2zm329 83c-9,2 -18,4 -27,6 0,0 -1,0 -1,0 -9,1 -18,2 -27,3 -1,0 -3,0 -4,0 -9,1 -18,1 -27,1 -9,0 -18,0 -27,-1 -2,0 -3,0 -5,0 -9,-1 -18,-2 -27,-3 0,0 -1,-1 -1,-1 -19,-3 -37,-7 -55,-13 -1,-1 -2,-1 -2,-1 -9,-3 -18,-6 -27,-10l0 0c0,0 0,0 0,0 -8,-4 -16,-8 -24,-12 -1,0 -2,-1 -3,-2 -8,-3 -15,-8 -22,-12 -2,-1 -4,-3 -6,-4 -6,-4 -13,-9 -19,-13 -1,-1 -1,-1 -2,-2l-5 -4 6 -3c0,0 0,0 1,0l111 -61c18,-10 29,-29 29,-49l0 -49 -2 -3c-2,-2 -4,-5 -5,-7 -5,-6 -9,-12 -12,-19 -12,-19 -21,-41 -26,-63l-1 -4 -3 -3c-8,-5 -13,-13 -13,-23l0 -50c0,-7 3,-15 9,-20l3 -3 0 -76 0 -2c-1,-7 0,-15 1,-22 3,-16 9,-30 20,-43 26,-29 70,-36 107,-36 37,0 80,7 106,36 11,12 18,27 20,43 1,7 2,15 1,22l0 78 4 3c5,5 9,13 9,20l0 50c0,12 -8,23 -20,27l-5 1 -1 5c-9,26 -20,50 -36,72 -3,5 -7,9 -11,14l-2 3 0 50c0,21 12,40 30,50l120 60c1,0 1,0 2,1l6 3 -5 4c-2,1 -3,2 -5,3 -5,4 -10,7 -15,10 -2,2 -5,4 -7,5 -7,4 -14,8 -21,12 -1,1 -3,1 -4,2 -16,8 -33,16 -50,21 -1,1 -1,1 -2,1 -9,3 -18,6 -27,8l-1 0 0 0z"/>
 </g>
</svg>
