<?xml version="1.0" encoding="UTF-8"?>
<!DOCTYPE svg PUBLIC "-//W3C//DTD SVG 1.1//EN" "http://www.w3.org/Graphics/SVG/1.1/DTD/svg11.dtd">
<!-- Creator: CorelDRAW X8 -->
<svg xmlns="http://www.w3.org/2000/svg" xml:space="preserve" width="46px" height="46px" version="1.1" style="shape-rendering:geometricPrecision; text-rendering:geometricPrecision; image-rendering:optimizeQuality; fill-rule:evenodd; clip-rule:evenodd"
viewBox="0 0 1354 1354"
 xmlns:xlink="http://www.w3.org/1999/xlink">
 <defs>
  <style type="text/css">
   <![CDATA[
    .fil0 {fill:none}
    .fil1 {fill:#FEFEFE}
   ]]>
  </style>
 </defs>
 <g id="Camada_x0020_1">
  <metadata id="CorelCorpID_0Corel-Layer"/>
  <path class="fil0" d="M677 0c186,0 355,76 478,199 122,122 199,292 199,478 0,186 -77,355 -199,478 -123,122 -292,199 -478,199 -186,0 -356,-77 -478,-199 -123,-123 -199,-292 -199,-478 0,-186 76,-356 199,-478 122,-123 292,-199 478,-199z"/>
  <path class="fil1" d="M972 665c-78,-79 -183,-122 -294,-122 0,0 -1,0 -1,0 0,0 0,0 0,0 -1,0 -1,0 -1,0 -111,0 -215,44 -292,122l-3 3c-4,4 -4,10 0,14 2,2 5,3 7,3 3,0 6,-1 8,-3l2 -2c54,-55 121,-91 195,-107 -31,24 -50,62 -50,104 0,74 60,134 134,134 74,0 134,-60 134,-134 0,-43 -20,-80 -51,-105 75,16 143,53 198,108 4,4 10,4 14,0 4,-4 4,-11 0,-15zm-182 12c0,62 -51,113 -113,113 -63,0 -114,-51 -114,-113 0,-62 51,-113 113,-114 0,0 1,0 1,0 62,1 113,51 113,114z"/>
  <path class="fil1" d="M749 666c-5,0 -10,5 -10,11 0,34 -28,62 -62,62 -34,0 -62,-28 -62,-62 0,-34 28,-62 62,-62 6,0 10,-5 10,-10 0,-6 -4,-11 -10,-11 -45,0 -82,37 -82,83 0,45 37,82 82,82 46,0 83,-37 83,-82 0,-6 -5,-11 -11,-11z"/>
  <path class="fil1" d="M677 287c215,0 389,175 389,390 0,215 -174,389 -389,389 -215,0 -390,-174 -390,-389 0,-215 175,-390 390,-390zm0 23c202,0 366,164 366,367 0,202 -164,366 -366,366 -203,0 -367,-164 -367,-366 0,-203 164,-367 367,-367z"/>
 </g>
</svg>
